<svg xmlns="http://www.w3.org/2000/svg" xmlns:xlink="http://www.w3.org/1999/xlink" viewBox="0 0 50 50" fill="#FFFFFF">
  <path d="M34.25 2.09375L33.6875 2.9375L24.8125 15.71875L17 18.03125L16.96875 18.0625L16.9375 18.0625C15.949219 18.433594 15.183594 19.082031 14.59375 19.90625L14.5625 19.9375L14.5625 19.96875L7.8125 30.375L7.5625 29.5625L1 31.53125L0.0625 31.84375L0.34375 32.78125L4.84375 47.875L5.125 48.84375L6.09375 48.5625L11.6875 46.84375L12.65625 46.5625L12.34375 45.625L11.78125 43.71875L19.625 41.96875C22.035156 41.421875 24.230469 40.121094 25.78125 38.125L26.15625 37.65625L29.9375 40.3125L30.75 40.90625L31.3125 40.0625L49.4375 13.875L50 13.0625L49.15625 12.46875L35.0625 2.6875 Z M 34.75 4.875L47.21875 13.5625L40.0625 23.90625C40.980469 20.980469 39.574219 17.476563 36.59375 15.40625C36.585938 15.402344 36.601563 15.378906 36.59375 15.375C36.585938 15.367188 36.570313 15.382813 36.5625 15.375C34.824219 14.148438 32.757813 13.636719 30.875 13.8125C29.796875 13.914063 28.785156 14.257813 27.90625 14.8125 Z M 38.9375 10.8125C38.390625 10.808594 37.863281 11.078125 37.53125 11.5625C37 12.335938 37.195313 13.375 37.96875 13.90625C38.742188 14.4375 39.8125 14.242188 40.34375 13.46875C40.875 12.695313 40.679688 11.65625 39.90625 11.125C39.617188 10.925781 39.265625 10.816406 38.9375 10.8125 Z M 31.125 15.78125C32.507813 15.65625 34.050781 16.035156 35.40625 17L35.4375 17.03125C38.269531 18.980469 39.113281 22.285156 37.6875 24.34375L37.65625 24.34375C36.9375 25.453125 35.738281 26.054688 34.25 26.125C34.300781 24.980469 33.894531 23.839844 33 23C32.992188 22.992188 32.976563 23.007813 32.96875 23C31.605469 21.652344 29.480469 21.425781 27.90625 22.46875C26.953125 20.753906 26.882813 18.890625 27.8125 17.5625C28.523438 16.535156 29.742188 15.90625 31.125 15.78125 Z M 23.03125 18.34375L18.25 25.875L17.71875 26.75L18.59375 27.25L21.78125 29.15625L22.375 29.53125L22.9375 29.0625L28 24.96875C28.257813 24.886719 28.46875 24.707031 28.59375 24.46875L28.84375 24.28125C29.640625 23.617188 30.859375 23.671875 31.59375 24.40625L31.59375 24.4375L31.625 24.4375C32.445313 25.1875 32.519531 26.359375 31.8125 27.28125L24.21875 36.875C22.96875 38.480469 21.179688 39.578125 19.1875 40.03125L11.21875 41.8125L8.40625 32.375L8.71875 32.25L9.0625 32.125L9.25 31.84375L16.21875 21.09375C16.613281 20.539063 17.019531 20.199219 17.59375 19.96875C17.617188 19.960938 17.632813 19.945313 17.65625 19.9375 Z M 25.3125 18.46875C24.925781 20.207031 25.316406 22.09375 26.3125 23.75L22.21875 27.09375L20.5 26.0625 Z M 38.0625 26.8125L30.25 38.125L27.375 36.09375L33.375 28.53125L33.375 28.5L33.40625 28.5C33.5 28.378906 33.578125 28.253906 33.65625 28.125C35.28125 28.171875 36.847656 27.753906 38.0625 26.8125 Z M 6.21875 32.03125L10.15625 45.25L6.46875 46.375L2.53125 33.1875Z" fill="#FFFFFF" />
</svg>